<svg xmlns="http://www.w3.org/2000/svg" viewBox="0 0 1464 24" width="1464" height="24"><g><defs><clipPath id="clip_frame0_path_1"><path d="M3.59 16.75h16.83c1.07 0 1.93-.86 1.93-1.93V4.34c0-1.07-.86-1.93-1.93-1.93H3.59c-1.07 0-1.93.86-1.93 1.93v15.1l1.93-2.69z"/></clipPath></defs><path clip-path="url(#clip_frame0_path_1)" d="M1.66 21.22s3.68-.83 9.71.01c0 0 5.75 1.2 10.77-.05l.2 1.82-20.68.06v-1.84z" fill="#000000"/><path d="M3.59 16.75h16.83c1.07 0 1.93-.86 1.93-1.93V4.34c0-1.07-.86-1.93-1.93-1.93H3.59c-1.07 0-1.93.86-1.93 1.93v15.1l1.93-2.69z" fill="none" stroke="#000000" stroke-width="2" stroke-miterlimit="10"/><path d="M.63 6.46l13.44.07" fill="none" stroke="#ffffff" stroke-width="2" stroke-dasharray="0,13.440182290430439" stroke-dashoffset="13.440182" stroke-miterlimit="10"/><path d="M.57 9.81L12 9.87" fill="none" stroke="#ffffff" stroke-width="2" stroke-dasharray="0,11.430157479230107" stroke-dashoffset="11.430157" stroke-miterlimit="10"/><path d="M.55 13.15l8.43.05" fill="none" stroke="#ffffff" stroke-width="2" stroke-dasharray="0,8.430148278648483" stroke-dashoffset="8.430148" stroke-miterlimit="10"/></g><g transform="translate(24)"><defs><clipPath id="clip_frame1_path_1"><path d="M3.59 16.75h16.83c1.07 0 1.93-.86 1.93-1.93V4.34c0-1.07-.86-1.93-1.93-1.93H3.59c-1.07 0-1.93.86-1.93 1.93v15.1l1.93-2.69z"/></clipPath></defs><path clip-path="url(#clip_frame1_path_1)" d="M1.66 21.22s3.68-.83 9.71.01c0 0 5.75 1.2 10.77-.05l.2 1.82-20.68.06v-1.84z" fill="#000000"/><path d="M3.59 16.75h16.83c1.07 0 1.93-.86 1.93-1.93V4.34c0-1.07-.86-1.93-1.93-1.93H3.59c-1.07 0-1.93.86-1.93 1.93v15.1l1.93-2.69z" fill="none" stroke="#000000" stroke-width="2" stroke-miterlimit="10"/><path d="M.63 6.46l13.44.07" fill="none" stroke="#ffffff" stroke-width="2" stroke-dasharray="0,13.440182290430439" stroke-dashoffset="13.440182" stroke-miterlimit="10"/><path d="M.57 9.81L12 9.87" fill="none" stroke="#ffffff" stroke-width="2" stroke-dasharray="0,11.430157479230107" stroke-dashoffset="11.430157" stroke-miterlimit="10"/><path d="M.55 13.15l8.43.05" fill="none" stroke="#ffffff" stroke-width="2" stroke-dasharray="0,8.430148278648483" stroke-dashoffset="8.430148" stroke-miterlimit="10"/></g><g transform="translate(48)"><defs><clipPath id="clip_frame2_path_1"><path d="M3.59 16.75h16.83c1.07 0 1.93-.86 1.93-1.93V4.34c0-1.07-.86-1.93-1.93-1.93H3.59c-1.07 0-1.93.86-1.93 1.93v15.1l1.93-2.69z"/></clipPath></defs><path clip-path="url(#clip_frame2_path_1)" d="M1.66 21.213s3.68-.833 9.71.01c0 0 5.75 1.205 10.77-.05l.2 1.827-20.68.06v-1.847z" fill="#000000"/><path d="M3.59 16.75h16.83c1.07 0 1.93-.86 1.93-1.93V4.34c0-1.07-.86-1.93-1.93-1.93H3.59c-1.07 0-1.93.86-1.93 1.93v15.1l1.93-2.69z" fill="none" stroke="#000000" stroke-width="2" stroke-miterlimit="10"/><path d="M.63 6.46l13.44.07" fill="none" stroke="#ffffff" stroke-width="2" stroke-dasharray="0,13.440182290430439" stroke-dashoffset="13.440182" stroke-miterlimit="10"/><path d="M.57 9.81L12 9.87" fill="none" stroke="#ffffff" stroke-width="2" stroke-dasharray="0,11.430157479230107" stroke-dashoffset="11.430157" stroke-miterlimit="10"/><path d="M.55 13.15l8.43.05" fill="none" stroke="#ffffff" stroke-width="2" stroke-dasharray="0,8.430148278648483" stroke-dashoffset="8.430148" stroke-miterlimit="10"/></g><g transform="translate(72)"><defs><clipPath id="clip_frame3_path_1"><path d="M3.59 16.75h16.83c1.07 0 1.93-.86 1.93-1.93V4.34c0-1.07-.86-1.93-1.93-1.93H3.59c-1.07 0-1.93.86-1.93 1.93v15.1l1.93-2.69z"/></clipPath></defs><path clip-path="url(#clip_frame3_path_1)" d="M1.66 21.089s3.68-.889 9.71.011c0 0 5.75 1.285 10.77-.054l.2 1.95-20.68.064v-1.971z" fill="#000000"/><path d="M3.59 16.75h16.83c1.07 0 1.93-.86 1.93-1.93V4.34c0-1.07-.86-1.93-1.93-1.93H3.59c-1.07 0-1.93.86-1.93 1.93v15.1l1.93-2.69z" fill="none" stroke="#000000" stroke-width="2" stroke-miterlimit="10"/><path d="M.63 6.46l13.44.07" fill="none" stroke="#ffffff" stroke-width="2" stroke-dasharray="0,13.440182290430439" stroke-dashoffset="13.440182" stroke-miterlimit="10"/><path d="M.57 9.81L12 9.87" fill="none" stroke="#ffffff" stroke-width="2" stroke-dasharray="0,11.430157479230107" stroke-dashoffset="11.430157" stroke-miterlimit="10"/><path d="M.55 13.15l8.43.05" fill="none" stroke="#ffffff" stroke-width="2" stroke-dasharray="0,8.430148278648483" stroke-dashoffset="8.430148" stroke-miterlimit="10"/></g><g transform="translate(96)"><defs><clipPath id="clip_frame4_path_1"><path d="M3.59 16.75h16.83c1.07 0 1.93-.86 1.93-1.93V4.34c0-1.07-.86-1.93-1.93-1.93H3.59c-1.07 0-1.93.86-1.93 1.93v15.1l1.93-2.69z"/></clipPath></defs><path clip-path="url(#clip_frame4_path_1)" d="M1.66 20.783s3.68-1.028 9.71.011c0 0 5.75 1.486 10.77-.063l.2 2.256-20.68.073v-2.277z" fill="#000000"/><path d="M3.59 16.75h16.83c1.07 0 1.93-.86 1.93-1.93V4.34c0-1.07-.86-1.93-1.93-1.93H3.59c-1.07 0-1.93.86-1.93 1.93v15.1l1.93-2.69z" fill="none" stroke="#000000" stroke-width="2" stroke-miterlimit="10"/><path d="M.63 6.46l13.44.07" fill="none" stroke="#ffffff" stroke-width="2" stroke-dasharray="0,13.440182290430439" stroke-dashoffset="13.440182" stroke-miterlimit="10"/><path d="M.57 9.81L12 9.87" fill="none" stroke="#ffffff" stroke-width="2" stroke-dasharray="0,11.430157479230107" stroke-dashoffset="11.430157" stroke-miterlimit="10"/><path d="M.55 13.15l8.43.05" fill="none" stroke="#ffffff" stroke-width="2" stroke-dasharray="0,8.430148278648483" stroke-dashoffset="8.430148" stroke-miterlimit="10"/></g><g transform="translate(120)"><defs><clipPath id="clip_frame5_path_1"><path d="M3.59 16.75h16.83c1.07 0 1.93-.86 1.93-1.93V4.34c0-1.07-.86-1.93-1.93-1.93H3.59c-1.07 0-1.93.86-1.93 1.93v15.1l1.93-2.69z"/></clipPath></defs><path clip-path="url(#clip_frame5_path_1)" d="M1.66 20.245s3.68-1.27 9.71.014c0 0 5.75 1.836 10.77-.079l.2 2.791-20.68.089v-2.815z" fill="#000000"/><path d="M3.59 16.75h16.83c1.07 0 1.93-.86 1.93-1.93V4.34c0-1.07-.86-1.93-1.93-1.93H3.59c-1.07 0-1.93.86-1.93 1.93v15.1l1.93-2.69z" fill="none" stroke="#000000" stroke-width="2" stroke-miterlimit="10"/><path d="M.63 6.46l13.44.07" fill="none" stroke="#ffffff" stroke-width="2" stroke-dasharray="0,13.440182290430439" stroke-dashoffset="13.440182" stroke-miterlimit="10"/><path d="M.57 9.81L12 9.87" fill="none" stroke="#ffffff" stroke-width="2" stroke-dasharray="0,11.430157479230107" stroke-dashoffset="11.430157" stroke-miterlimit="10"/><path d="M.55 13.15l8.43.05" fill="none" stroke="#ffffff" stroke-width="2" stroke-dasharray="0,8.430148278648483" stroke-dashoffset="8.430148" stroke-miterlimit="10"/></g><g transform="translate(144)"><defs><clipPath id="clip_frame6_path_1"><path d="M3.59 16.75h16.83c1.07 0 1.93-.86 1.93-1.93V4.34c0-1.07-.86-1.93-1.93-1.93H3.59c-1.07 0-1.93.86-1.93 1.93v15.1l1.93-2.69z"/></clipPath></defs><path clip-path="url(#clip_frame6_path_1)" d="M1.66 19.414s3.68-1.645 9.71.017c0 0 5.75 2.378 10.77-.105l.201 3.62-20.681.114v-3.646z" fill="#000000"/><path d="M3.59 16.75h16.83c1.07 0 1.93-.86 1.93-1.93V4.34c0-1.07-.86-1.93-1.93-1.93H3.59c-1.07 0-1.93.86-1.93 1.93v15.1l1.93-2.69z" fill="none" stroke="#000000" stroke-width="2" stroke-miterlimit="10"/><path d="M.63 6.46l13.44.07" fill="none" stroke="#ffffff" stroke-width="2" stroke-dasharray="0,13.440182290430439" stroke-dashoffset="13.440182" stroke-miterlimit="10"/><path d="M.57 9.81L12 9.87" fill="none" stroke="#ffffff" stroke-width="2" stroke-dasharray="0,11.430157479230107" stroke-dashoffset="11.430157" stroke-miterlimit="10"/><path d="M.55 13.15l8.43.05" fill="none" stroke="#ffffff" stroke-width="2" stroke-dasharray="0,8.430148278648483" stroke-dashoffset="8.430148" stroke-miterlimit="10"/></g><g transform="translate(168)"><defs><clipPath id="clip_frame7_path_1"><path d="M3.59 16.75h16.83c1.07 0 1.93-.86 1.93-1.93V4.34c0-1.07-.86-1.93-1.93-1.93H3.59c-1.07 0-1.93.86-1.93 1.93v15.1l1.93-2.69z"/></clipPath></defs><path clip-path="url(#clip_frame7_path_1)" d="M1.66 18.212s3.68-2.188 9.71.02c0 0 5.75 3.164 10.77-.14l.201 4.818-20.681.15v-4.848z" fill="#000000"/><path d="M3.59 16.75h16.83c1.07 0 1.93-.86 1.93-1.93V4.34c0-1.07-.86-1.93-1.93-1.93H3.59c-1.07 0-1.93.86-1.93 1.93v15.1l1.93-2.69z" fill="none" stroke="#000000" stroke-width="2" stroke-miterlimit="10"/><path d="M.63 6.46l13.44.07" fill="none" stroke="#ffffff" stroke-width="2" stroke-dasharray="0,13.440182290430439" stroke-dashoffset="13.440182" stroke-miterlimit="10"/><path d="M.57 9.81L12 9.87" fill="none" stroke="#ffffff" stroke-width="2" stroke-dasharray="0,11.430157479230107" stroke-dashoffset="11.430157" stroke-miterlimit="10"/><path d="M.55 13.15l8.43.05" fill="none" stroke="#ffffff" stroke-width="2" stroke-dasharray="0,8.430148278648483" stroke-dashoffset="8.430148" stroke-miterlimit="10"/></g><g transform="translate(192)"><defs><clipPath id="clip_frame8_path_1"><path d="M3.59 16.75h16.83c1.07 0 1.93-.86 1.93-1.93V4.34c0-1.07-.86-1.93-1.93-1.93H3.59c-1.07 0-1.93.86-1.93 1.93v15.1l1.93-2.69z"/></clipPath></defs><path clip-path="url(#clip_frame8_path_1)" d="M1.66 16.565s3.68-2.932 9.71.026c0 0 5.75 4.238 10.77-.19l.202 6.459-20.682.2v-6.495z" fill="#000000"/><path d="M3.59 16.75h16.83c1.07 0 1.93-.86 1.93-1.93V4.34c0-1.07-.86-1.93-1.93-1.93H3.59c-1.07 0-1.93.86-1.93 1.93v15.1l1.93-2.69z" fill="none" stroke="#000000" stroke-width="2" stroke-miterlimit="10"/><path d="M.63 6.46l13.44.07" fill="none" stroke="#ffffff" stroke-width="2" stroke-dasharray="0,13.440182290430439" stroke-dashoffset="13.440182" stroke-miterlimit="10"/><path d="M.57 9.81L12 9.87" fill="none" stroke="#ffffff" stroke-width="2" stroke-dasharray="0,11.430157479230107" stroke-dashoffset="11.430157" stroke-miterlimit="10"/><path d="M.55 13.15l8.43.05" fill="none" stroke="#ffffff" stroke-width="2" stroke-dasharray="0,8.430148278648483" stroke-dashoffset="8.430148" stroke-miterlimit="10"/></g><g transform="translate(216)"><defs><clipPath id="clip_frame9_path_1"><path d="M3.59 16.75h16.83c1.07 0 1.93-.86 1.93-1.93V4.34c0-1.07-.86-1.93-1.93-1.93H3.59c-1.07 0-1.93.86-1.93 1.93v15.1l1.93-2.69z"/></clipPath></defs><path clip-path="url(#clip_frame9_path_1)" d="M1.66 14.456s3.68-3.885 9.71.033c0 0 5.75 5.615 10.77-.254l.203 8.562-20.683.263v-8.604z" fill="#000000"/><path d="M3.59 16.75h16.83c1.07 0 1.93-.86 1.93-1.93V4.34c0-1.07-.86-1.93-1.93-1.93H3.59c-1.07 0-1.93.86-1.93 1.93v15.1l1.93-2.69z" fill="none" stroke="#000000" stroke-width="2" stroke-miterlimit="10"/><path d="M.63 6.46l13.44.07" fill="none" stroke="#ffffff" stroke-width="2" stroke-dasharray="0,13.440182290430439" stroke-dashoffset="13.440182" stroke-miterlimit="10"/><path d="M.57 9.81L12 9.87" fill="none" stroke="#ffffff" stroke-width="2" stroke-dasharray="0,11.430157479230107" stroke-dashoffset="11.430157" stroke-miterlimit="10"/><path d="M.55 13.15l8.43.05" fill="none" stroke="#ffffff" stroke-width="2" stroke-dasharray="0,8.430148278648483" stroke-dashoffset="8.430148" stroke-miterlimit="10"/></g><g transform="translate(240)"><defs><clipPath id="clip_frame10_path_1"><path d="M3.59 16.75h16.83c1.07 0 1.93-.86 1.93-1.93V4.34c0-1.07-.86-1.93-1.93-1.93H3.59c-1.07 0-1.93.86-1.93 1.93v15.1l1.93-2.69z"/></clipPath></defs><path clip-path="url(#clip_frame10_path_1)" d="M1.66 12.01s3.68-4.988 9.71.042c0 0 5.75 7.211 10.77-.327l.204 10.998-20.684.337V12.01z" fill="#000000"/><path d="M3.59 16.75h16.83c1.07 0 1.93-.86 1.93-1.93V4.34c0-1.07-.86-1.93-1.93-1.93H3.59c-1.07 0-1.93.86-1.93 1.93v15.1l1.93-2.69z" fill="none" stroke="#000000" stroke-width="2" stroke-miterlimit="10"/><path d="M.63 6.46l13.44.07" fill="none" stroke="#ffffff" stroke-width="2" stroke-dasharray="0,13.440182290430439" stroke-dashoffset="13.440182" stroke-miterlimit="10"/><path d="M.57 9.81L12 9.87" fill="none" stroke="#ffffff" stroke-width="2" stroke-dasharray="0,11.430157479230107" stroke-dashoffset="11.430157" stroke-miterlimit="10"/><path d="M.55 13.15l8.43.05" fill="none" stroke="#ffffff" stroke-width="2" stroke-dasharray="0,8.430148278648483" stroke-dashoffset="8.430148" stroke-miterlimit="10"/></g><g transform="translate(264)"><defs><clipPath id="clip_frame11_path_1"><path d="M3.59 16.75h16.83c1.07 0 1.93-.86 1.93-1.93V4.34c0-1.07-.86-1.93-1.93-1.93H3.59c-1.07 0-1.93.86-1.93 1.93v15.1l1.93-2.69z"/></clipPath></defs><path clip-path="url(#clip_frame11_path_1)" d="M1.66 9.493s3.68-6.125 9.71.05c0 0 5.75 8.854 10.77-.403l.204 13.508-20.684.412V9.493z" fill="#000000"/><path d="M3.59 16.75h16.83c1.07 0 1.93-.86 1.93-1.93V4.34c0-1.07-.86-1.93-1.93-1.93H3.59c-1.07 0-1.93.86-1.93 1.93v15.1l1.93-2.69z" fill="none" stroke="#000000" stroke-width="2" stroke-miterlimit="10"/><path d="M.63 6.46l13.44.07" fill="none" stroke="#ffffff" stroke-width="2" stroke-dasharray="0,13.440182290430439" stroke-dashoffset="13.440182" stroke-miterlimit="10"/><path d="M.57 9.81L12 9.87" fill="none" stroke="#ffffff" stroke-width="2" stroke-dasharray="0,11.430157479230107" stroke-dashoffset="11.430157" stroke-miterlimit="10"/><path d="M.55 13.15l8.43.05" fill="none" stroke="#ffffff" stroke-width="2" stroke-dasharray="0,8.430148278648483" stroke-dashoffset="8.430148" stroke-miterlimit="10"/></g><g transform="translate(288)"><defs><clipPath id="clip_frame12_path_1"><path d="M3.59 16.75h16.83c1.07 0 1.93-.86 1.93-1.93V4.34c0-1.07-.86-1.93-1.93-1.93H3.59c-1.07 0-1.93.86-1.93 1.93v15.1l1.93-2.69z"/></clipPath></defs><path clip-path="url(#clip_frame12_path_1)" d="M1.66 7.152s3.68-7.182 9.71.058c0 0 5.75 10.383 10.77-.473l.205 15.84-20.685.483V7.152z" fill="#000000"/><path d="M3.59 16.75h16.83c1.07 0 1.93-.86 1.93-1.93V4.34c0-1.07-.86-1.93-1.93-1.93H3.59c-1.07 0-1.93.86-1.93 1.93v15.1l1.93-2.69z" fill="none" stroke="#000000" stroke-width="2" stroke-miterlimit="10"/><path d="M.63 6.46l13.44.07" fill="none" stroke="#ffffff" stroke-width="2" stroke-dasharray="0,13.440182290430439" stroke-dashoffset="13.440182" stroke-miterlimit="10"/><path d="M.57 9.81L12 9.87" fill="none" stroke="#ffffff" stroke-width="2" stroke-dasharray="0,11.430157479230107" stroke-dashoffset="11.430157" stroke-miterlimit="10"/><path d="M.55 13.15l8.43.05" fill="none" stroke="#ffffff" stroke-width="2" stroke-dasharray="0,8.430148278648483" stroke-dashoffset="8.430148" stroke-miterlimit="10"/></g><g transform="translate(312)"><defs><clipPath id="clip_frame13_path_1"><path d="M3.59 16.75h16.83c1.07 0 1.93-.86 1.93-1.93V4.34c0-1.07-.86-1.93-1.93-1.93H3.59c-1.07 0-1.93.86-1.93 1.93v15.1l1.93-2.69z"/></clipPath></defs><path clip-path="url(#clip_frame13_path_1)" d="M1.66 5.104s3.68-8.107 9.71.065c0 0 5.75 11.719 10.77-.534l.206 17.881-20.686.544V5.104z" fill="#000000"/><path d="M3.59 16.75h16.83c1.07 0 1.93-.86 1.93-1.93V4.34c0-1.07-.86-1.93-1.93-1.93H3.59c-1.07 0-1.93.86-1.93 1.93v15.1l1.93-2.69z" fill="none" stroke="#000000" stroke-width="2" stroke-miterlimit="10"/><path d="M.63 6.46l13.44.07" fill="none" stroke="#ffffff" stroke-width="2" stroke-dasharray="0,13.440182290430439" stroke-dashoffset="13.440182" stroke-miterlimit="10"/><path d="M.57 9.81L12 9.87" fill="none" stroke="#ffffff" stroke-width="2" stroke-dasharray="0,11.430157479230107" stroke-dashoffset="11.430157" stroke-miterlimit="10"/><path d="M.55 13.15l8.43.05" fill="none" stroke="#ffffff" stroke-width="2" stroke-dasharray="0,8.430148278648483" stroke-dashoffset="8.430148" stroke-miterlimit="10"/></g><g transform="translate(336)"><defs><clipPath id="clip_frame14_path_1"><path d="M3.59 16.75h16.83c1.07 0 1.93-.86 1.93-1.93V4.34c0-1.07-.86-1.93-1.93-1.93H3.59c-1.07 0-1.93.86-1.93 1.93v15.1l1.93-2.69z"/></clipPath></defs><path clip-path="url(#clip_frame14_path_1)" d="M1.66 3.36s3.68-8.894 9.71.071c0 0 5.75 12.858 10.77-.587l.207 19.619-20.687.597V3.36z" fill="#000000"/><path d="M3.59 16.75h16.83c1.07 0 1.93-.86 1.93-1.93V4.34c0-1.07-.86-1.93-1.93-1.93H3.59c-1.07 0-1.93.86-1.93 1.93v15.1l1.93-2.69z" fill="none" stroke="#000000" stroke-width="2" stroke-miterlimit="10"/><path d="M.63 6.46l13.44.07" fill="none" stroke="#ffffff" stroke-width="2" stroke-dasharray="0,13.440182290430439" stroke-dashoffset="13.440182" stroke-miterlimit="10"/><path d="M.57 9.81L12 9.87" fill="none" stroke="#ffffff" stroke-width="2" stroke-dasharray="0,11.430157479230107" stroke-dashoffset="11.430157" stroke-miterlimit="10"/><path d="M.55 13.15l8.43.05" fill="none" stroke="#ffffff" stroke-width="2" stroke-dasharray="0,8.430148278648483" stroke-dashoffset="8.430148" stroke-miterlimit="10"/></g><g transform="translate(360)"><defs><clipPath id="clip_frame15_path_1"><path d="M3.59 16.75h16.83c1.07 0 1.93-.86 1.93-1.93V4.34c0-1.07-.86-1.93-1.93-1.93H3.59c-1.07 0-1.93.86-1.93 1.93v15.1l1.93-2.69z"/></clipPath></defs><path clip-path="url(#clip_frame15_path_1)" d="M1.66 1.887s3.68-9.558 9.71.077c0 0 5.75 13.818 10.77-.631l.207 21.086-20.687.641V1.887z" fill="#000000"/><path d="M3.59 16.75h16.83c1.07 0 1.93-.86 1.93-1.93V4.34c0-1.07-.86-1.93-1.93-1.93H3.59c-1.07 0-1.93.86-1.93 1.93v15.1l1.93-2.69z" fill="none" stroke="#000000" stroke-width="2" stroke-miterlimit="10"/><path d="M.63 6.46l13.44.07" fill="none" stroke="#ffffff" stroke-width="2" stroke-dasharray="0,13.440182290430439" stroke-dashoffset="13.440182" stroke-miterlimit="10"/><path d="M.57 9.81L12 9.87" fill="none" stroke="#ffffff" stroke-width="2" stroke-dasharray="0,11.430157479230107" stroke-dashoffset="11.430157" stroke-miterlimit="10"/><path d="M.55 13.15l8.43.05" fill="none" stroke="#ffffff" stroke-width="2" stroke-dasharray="0,8.430148278648483" stroke-dashoffset="8.430148" stroke-miterlimit="10"/></g><g transform="translate(384)"><defs><clipPath id="clip_frame16_path_1"><path d="M3.59 16.75h16.83c1.07 0 1.93-.86 1.93-1.93V4.34c0-1.07-.86-1.93-1.93-1.93H3.59c-1.07 0-1.93.86-1.93 1.93v15.1l1.93-2.69z"/></clipPath></defs><path clip-path="url(#clip_frame16_path_1)" d="M1.66.646s3.68-10.12 9.71.08c0 0 5.75 14.629 10.77-.668l.208 22.324-20.688.678V.646z" fill="#000000"/><path d="M3.59 16.75h16.83c1.07 0 1.93-.86 1.93-1.93V4.34c0-1.07-.86-1.93-1.93-1.93H3.59c-1.07 0-1.93.86-1.93 1.93v15.1l1.93-2.69z" fill="none" stroke="#000000" stroke-width="2" stroke-miterlimit="10"/><path d="M.63 6.46l13.44.07" fill="none" stroke="#ffffff" stroke-width="2" stroke-dasharray="0,13.440182290430439" stroke-dashoffset="13.440182" stroke-miterlimit="10"/><path d="M.57 9.81L12 9.87" fill="none" stroke="#ffffff" stroke-width="2" stroke-dasharray="0,11.430157479230107" stroke-dashoffset="11.430157" stroke-miterlimit="10"/><path d="M.55 13.15l8.43.05" fill="none" stroke="#ffffff" stroke-width="2" stroke-dasharray="0,8.430148278648483" stroke-dashoffset="8.430148" stroke-miterlimit="10"/></g><g transform="translate(408)"><defs><clipPath id="clip_frame17_path_1"><path d="M3.59 16.75h16.83c1.07 0 1.93-.86 1.93-1.93V4.34c0-1.07-.86-1.93-1.93-1.93H3.59c-1.07 0-1.93.86-1.93 1.93v15.1l1.93-2.69z"/></clipPath></defs><path clip-path="url(#clip_frame17_path_1)" d="M1.66-.403s3.68-10.593 9.71.084c0 0 5.75 15.314 10.77-.7l.208 23.369-20.688.71V-.403z" fill="#000000"/><path d="M3.59 16.75h16.83c1.07 0 1.93-.86 1.93-1.93V4.34c0-1.07-.86-1.93-1.93-1.93H3.59c-1.07 0-1.93.86-1.93 1.93v15.1l1.93-2.69z" fill="none" stroke="#000000" stroke-width="2" stroke-miterlimit="10"/><path d="M.63 6.46l13.44.07" fill="none" stroke="#ffffff" stroke-width="2" stroke-dasharray="0,13.440182290430439" stroke-dashoffset="13.440182" stroke-miterlimit="10"/><path d="M.57 9.81L12 9.87" fill="none" stroke="#ffffff" stroke-width="2" stroke-dasharray="0,11.430157479230107" stroke-dashoffset="11.430157" stroke-miterlimit="10"/><path d="M.55 13.15l8.43.05" fill="none" stroke="#ffffff" stroke-width="2" stroke-dasharray="0,8.430148278648483" stroke-dashoffset="8.430148" stroke-miterlimit="10"/></g><g transform="translate(432)"><defs><clipPath id="clip_frame18_path_1"><path d="M3.59 16.75h16.83c1.07 0 1.93-.86 1.93-1.93V4.34c0-1.07-.86-1.93-1.93-1.93H3.59c-1.07 0-1.93.86-1.93 1.93v15.1l1.93-2.69z"/></clipPath></defs><path clip-path="url(#clip_frame18_path_1)" d="M1.66-1.291s3.68-10.993 9.71.087c0 0 5.75 15.894 10.77-.726l.209 24.254-20.689.736V-1.291z" fill="#000000"/><path d="M3.59 16.75h16.83c1.07 0 1.93-.86 1.93-1.93V4.34c0-1.07-.86-1.93-1.93-1.93H3.59c-1.07 0-1.93.86-1.93 1.93v15.1l1.93-2.69z" fill="none" stroke="#000000" stroke-width="2" stroke-miterlimit="10"/><path d="M.63 6.46l13.44.07" fill="none" stroke="#ffffff" stroke-width="2" stroke-dasharray="0,13.440182290430439" stroke-dashoffset="13.440182" stroke-miterlimit="10"/><path d="M.57 9.81L12 9.87" fill="none" stroke="#ffffff" stroke-width="2" stroke-dasharray="0,11.430157479230107" stroke-dashoffset="11.430157" stroke-miterlimit="10"/><path d="M.55 13.15l8.43.05" fill="none" stroke="#ffffff" stroke-width="2" stroke-dasharray="0,8.430148278648483" stroke-dashoffset="8.430148" stroke-miterlimit="10"/></g><g transform="translate(456)"><defs><clipPath id="clip_frame19_path_1"><path d="M3.59 16.75h16.83c1.07 0 1.93-.86 1.93-1.93V4.34c0-1.07-.86-1.93-1.93-1.93H3.59c-1.07 0-1.93.86-1.93 1.93v15.1l1.93-2.69z"/></clipPath></defs><path clip-path="url(#clip_frame19_path_1)" d="M1.66-2.042s3.68-11.333 9.71.09c0 0 5.75 16.383 10.77-.749l.209 25.002-20.689.759V-2.042z" fill="#000000"/><path d="M3.59 16.75h16.83c1.07 0 1.93-.86 1.93-1.93V4.34c0-1.07-.86-1.93-1.93-1.93H3.59c-1.07 0-1.93.86-1.93 1.93v15.1l1.93-2.69z" fill="none" stroke="#000000" stroke-width="2" stroke-miterlimit="10"/><path d="M.63 6.46l13.44.07" fill="none" stroke="#ffffff" stroke-width="2" stroke-dasharray="0,13.440182290430439" stroke-dashoffset="13.440182" stroke-miterlimit="10"/><path d="M.57 9.81L12 9.87" fill="none" stroke="#ffffff" stroke-width="2" stroke-dasharray="0,11.430157479230107" stroke-dashoffset="11.430157" stroke-miterlimit="10"/><path d="M.55 13.15l8.43.05" fill="none" stroke="#ffffff" stroke-width="2" stroke-dasharray="0,8.430148278648483" stroke-dashoffset="8.430148" stroke-miterlimit="10"/></g><g transform="translate(480)"><defs><clipPath id="clip_frame20_path_1"><path d="M3.59 16.75h16.83c1.07 0 1.93-.86 1.93-1.93V4.34c0-1.07-.86-1.93-1.93-1.93H3.59c-1.07 0-1.93.86-1.93 1.93v15.1l1.93-2.69z"/></clipPath></defs><path clip-path="url(#clip_frame20_path_1)" d="M1.66-2.676s3.68-11.62 9.71.091c0 0 5.75 16.798 10.77-.768l.209 25.635-20.689.778V-2.676z" fill="#000000"/><path d="M3.59 16.75h16.83c1.07 0 1.93-.86 1.93-1.93V4.34c0-1.07-.86-1.93-1.93-1.93H3.59c-1.07 0-1.93.86-1.93 1.93v15.1l1.93-2.69z" fill="none" stroke="#000000" stroke-width="2" stroke-miterlimit="10"/><path d="M.63 6.46l13.44.07" fill="none" stroke="#ffffff" stroke-width="2" stroke-dasharray="0,13.440182290430439" stroke-dashoffset="13.440182" stroke-miterlimit="10"/><path d="M.57 9.81L12 9.87" fill="none" stroke="#ffffff" stroke-width="2" stroke-dasharray="0,11.430157479230107" stroke-dashoffset="11.430157" stroke-miterlimit="10"/><path d="M.55 13.15l8.43.05" fill="none" stroke="#ffffff" stroke-width="2" stroke-dasharray="0,8.430148278648483" stroke-dashoffset="8.430148" stroke-miterlimit="10"/></g><g transform="translate(504)"><defs><clipPath id="clip_frame21_path_1"><path d="M3.59 16.75h16.83c1.07 0 1.93-.86 1.93-1.93V4.34c0-1.07-.86-1.93-1.93-1.93H3.59c-1.07 0-1.93.86-1.93 1.93v15.1l1.93-2.69z"/></clipPath></defs><path clip-path="url(#clip_frame21_path_1)" d="M1.66-3.211s3.68-11.86 9.71.094c0 0 5.75 17.146 10.77-.784l.209 26.167-20.689.794V-3.211z" fill="#000000"/><path d="M3.59 16.75h16.83c1.07 0 1.93-.86 1.93-1.93V4.34c0-1.07-.86-1.93-1.93-1.93H3.59c-1.07 0-1.93.86-1.93 1.93v15.1l1.93-2.69z" fill="none" stroke="#000000" stroke-width="2" stroke-miterlimit="10"/><path d="M.63 6.46l13.44.07" fill="none" stroke="#ffffff" stroke-width="2" stroke-dasharray="0,13.440182290430439" stroke-dashoffset="13.440182" stroke-miterlimit="10"/><path d="M.57 9.81L12 9.87" fill="none" stroke="#ffffff" stroke-width="2" stroke-dasharray="0,11.430157479230107" stroke-dashoffset="11.430157" stroke-miterlimit="10"/><path d="M.55 13.15l8.43.05" fill="none" stroke="#ffffff" stroke-width="2" stroke-dasharray="0,8.430148278648483" stroke-dashoffset="8.430148" stroke-miterlimit="10"/></g><g transform="translate(528)"><defs><clipPath id="clip_frame22_path_1"><path d="M3.59 16.75h16.83c1.07 0 1.93-.86 1.93-1.93V4.34c0-1.07-.86-1.93-1.93-1.93H3.59c-1.07 0-1.93.86-1.93 1.93v15.1l1.93-2.69z"/></clipPath></defs><path clip-path="url(#clip_frame22_path_1)" d="M1.66-3.658s3.68-12.063 9.71.095c0 0 5.75 17.438 10.77-.798l.209 26.613-20.689.808V-3.658z" fill="#000000"/><path d="M3.59 16.75h16.83c1.07 0 1.93-.86 1.93-1.93V4.34c0-1.07-.86-1.93-1.93-1.93H3.59c-1.07 0-1.93.86-1.93 1.93v15.1l1.93-2.69z" fill="none" stroke="#000000" stroke-width="2" stroke-miterlimit="10"/><path d="M.63 6.46l13.44.07" fill="none" stroke="#ffffff" stroke-width="2" stroke-dasharray="0,13.440182290430439" stroke-dashoffset="13.440182" stroke-miterlimit="10"/><path d="M.57 9.81L12 9.87" fill="none" stroke="#ffffff" stroke-width="2" stroke-dasharray="0,11.430157479230107" stroke-dashoffset="11.430157" stroke-miterlimit="10"/><path d="M.55 13.15l8.43.05" fill="none" stroke="#ffffff" stroke-width="2" stroke-dasharray="0,8.430148278648483" stroke-dashoffset="8.430148" stroke-miterlimit="10"/></g><g transform="translate(552)"><defs><clipPath id="clip_frame23_path_1"><path d="M3.59 16.75h16.83c1.07 0 1.93-.86 1.93-1.93V4.34c0-1.07-.86-1.93-1.93-1.93H3.59c-1.07 0-1.93.86-1.93 1.93v15.1l1.93-2.69z"/></clipPath></defs><path clip-path="url(#clip_frame23_path_1)" d="M1.66-4.029s3.68-12.23 9.71.097c0 0 5.75 17.68 10.77-.809l.21 26.982-20.69.819V-4.029z" fill="#000000"/><path d="M3.59 16.75h16.83c1.07 0 1.93-.86 1.93-1.93V4.34c0-1.07-.86-1.93-1.93-1.93H3.59c-1.07 0-1.93.86-1.93 1.93v15.1l1.93-2.69z" fill="none" stroke="#000000" stroke-width="2" stroke-miterlimit="10"/><path d="M.63 6.46l13.44.07" fill="none" stroke="#ffffff" stroke-width="2" stroke-dasharray="0,13.440182290430439" stroke-dashoffset="13.440182" stroke-miterlimit="10"/><path d="M.57 9.81L12 9.87" fill="none" stroke="#ffffff" stroke-width="2" stroke-dasharray="0,11.430157479230107" stroke-dashoffset="11.430157" stroke-miterlimit="10"/><path d="M.55 13.15l8.43.05" fill="none" stroke="#ffffff" stroke-width="2" stroke-dasharray="0,8.430148278648483" stroke-dashoffset="8.430148" stroke-miterlimit="10"/></g><g transform="translate(576)"><defs><clipPath id="clip_frame24_path_1"><path d="M3.59 16.75h16.83c1.07 0 1.93-.86 1.93-1.93V4.34c0-1.07-.86-1.93-1.93-1.93H3.59c-1.07 0-1.93.86-1.93 1.93v15.1l1.93-2.69z"/></clipPath></defs><path clip-path="url(#clip_frame24_path_1)" d="M1.66-4.332s3.68-12.367 9.71.098c0 0 5.75 17.878 10.77-.818l.21 27.284-20.69.828V-4.332z" fill="#000000"/><path d="M3.59 16.75h16.83c1.07 0 1.93-.86 1.93-1.93V4.34c0-1.07-.86-1.93-1.93-1.93H3.59c-1.07 0-1.93.86-1.93 1.93v15.1l1.93-2.69z" fill="none" stroke="#000000" stroke-width="2" stroke-miterlimit="10"/><path d="M.63 6.46l13.44.07" fill="none" stroke="#ffffff" stroke-width="2" stroke-dasharray="0,13.440182290430439" stroke-dashoffset="13.440182" stroke-miterlimit="10"/><path d="M.57 9.81L12 9.87" fill="none" stroke="#ffffff" stroke-width="2" stroke-dasharray="0,11.430157479230107" stroke-dashoffset="11.430157" stroke-miterlimit="10"/><path d="M.55 13.15l8.43.05" fill="none" stroke="#ffffff" stroke-width="2" stroke-dasharray="0,8.430148278648483" stroke-dashoffset="8.430148" stroke-miterlimit="10"/></g><g transform="translate(600)"><defs><clipPath id="clip_frame25_path_1"><path d="M3.59 16.75h16.83c1.07 0 1.93-.86 1.93-1.93V4.34c0-1.07-.86-1.93-1.93-1.93H3.59c-1.07 0-1.93.86-1.93 1.93v15.1l1.93-2.69z"/></clipPath></defs><path clip-path="url(#clip_frame25_path_1)" d="M1.66-4.575s3.68-12.476 9.71.099c0 0 5.75 18.036 10.77-.825l.21 27.526-20.69.835V-4.575z" fill="#000000"/><path d="M3.59 16.75h16.83c1.07 0 1.93-.86 1.93-1.93V4.34c0-1.07-.86-1.93-1.93-1.93H3.59c-1.07 0-1.93.86-1.93 1.93v15.1l1.93-2.69z" fill="none" stroke="#000000" stroke-width="2" stroke-miterlimit="10"/><path d="M.63 6.46l13.44.07" fill="none" stroke="#ffffff" stroke-width="2" stroke-dasharray="1.712449189371474,11.727733101058964" stroke-dashoffset="13.440182" stroke-miterlimit="10"/><path d="M.57 9.81L12 9.87" fill="none" stroke="#ffffff" stroke-width="2" stroke-dasharray="0,11.430157479230107" stroke-dashoffset="11.430157" stroke-miterlimit="10"/><path d="M.55 13.15l8.43.05" fill="none" stroke="#ffffff" stroke-width="2" stroke-dasharray="0,8.430148278648483" stroke-dashoffset="8.430148" stroke-miterlimit="10"/></g><g transform="translate(624)"><defs><clipPath id="clip_frame26_path_1"><path d="M3.59 16.75h16.83c1.07 0 1.93-.86 1.93-1.93V4.34c0-1.07-.86-1.93-1.93-1.93H3.59c-1.07 0-1.93.86-1.93 1.93v15.1l1.93-2.69z"/></clipPath></defs><path clip-path="url(#clip_frame26_path_1)" d="M1.66-4.763s3.68-12.561 9.71.099c0 0 5.75 18.16 10.77-.831l.21 27.714-20.69.841V-4.763z" fill="#000000"/><path d="M3.59 16.75h16.83c1.07 0 1.93-.86 1.93-1.93V4.34c0-1.07-.86-1.93-1.93-1.93H3.59c-1.07 0-1.93.86-1.93 1.93v15.1l1.93-2.69z" fill="none" stroke="#000000" stroke-width="2" stroke-miterlimit="10"/><path d="M.63 6.46l13.44.07" fill="none" stroke="#ffffff" stroke-width="2" stroke-dasharray="8.028303687410302,5.411878603020136" stroke-dashoffset="13.440182" stroke-miterlimit="10"/><path d="M.57 9.81L12 9.87" fill="none" stroke="#ffffff" stroke-width="2" stroke-dasharray="0.6281371626276112,10.802020316602496" stroke-dashoffset="11.430157" stroke-miterlimit="10"/><path d="M.55 13.15l8.43.05" fill="none" stroke="#ffffff" stroke-width="2" stroke-dasharray="0,8.430148278648483" stroke-dashoffset="8.430148" stroke-miterlimit="10"/></g><g transform="translate(648)"><defs><clipPath id="clip_frame27_path_1"><path d="M3.59 16.75h16.83c1.07 0 1.93-.86 1.93-1.93V4.34c0-1.07-.86-1.93-1.93-1.93H3.59c-1.07 0-1.93.86-1.93 1.93v15.1l1.93-2.69z"/></clipPath></defs><path clip-path="url(#clip_frame27_path_1)" d="M1.66-4.903s3.68-12.624 9.71.1c0 0 5.75 18.251 10.77-.835l.21 27.853-20.69.845V-4.903z" fill="#000000"/><path d="M3.59 16.75h16.83c1.07 0 1.93-.86 1.93-1.93V4.34c0-1.07-.86-1.93-1.93-1.93H3.59c-1.07 0-1.93.86-1.93 1.93v15.1l1.93-2.69z" fill="none" stroke="#000000" stroke-width="2" stroke-miterlimit="10"/><path d="M.63 6.46l13.44.07" fill="none" stroke="#ffffff" stroke-width="2" stroke-dasharray="11.645490814010465,1.7946914764199735" stroke-dashoffset="13.440182" stroke-miterlimit="10"/><path d="M.57 9.81L12 9.87" fill="none" stroke="#ffffff" stroke-width="2" stroke-dasharray="7.3866949090699565,4.043462570160151" stroke-dashoffset="11.430157" stroke-miterlimit="10"/><path d="M.55 13.15l8.43.05" fill="none" stroke="#ffffff" stroke-width="2" stroke-dasharray="1.4766947219774482,6.953453556671034" stroke-dashoffset="8.430148" stroke-miterlimit="10"/></g><g transform="translate(672)"><defs><clipPath id="clip_frame28_path_1"><path d="M3.59 16.75h16.83c1.07 0 1.93-.86 1.93-1.93V4.34c0-1.07-.86-1.93-1.93-1.93H3.59c-1.07 0-1.93.86-1.93 1.93v15.1l1.93-2.69z"/></clipPath></defs><path clip-path="url(#clip_frame28_path_1)" d="M1.66-4.998s3.68-12.667 9.71.1c0 0 5.75 18.313 10.77-.838l.21 27.948-20.69.848V-4.998z" fill="#000000"/><path d="M3.59 16.75h16.83c1.07 0 1.93-.86 1.93-1.93V4.34c0-1.07-.86-1.93-1.93-1.93H3.59c-1.07 0-1.93.86-1.93 1.93v15.1l1.93-2.69z" fill="none" stroke="#000000" stroke-width="2" stroke-miterlimit="10"/><path d="M.63 6.46l13.44.07" fill="none" stroke="#ffffff" stroke-width="2" stroke-dasharray="13.047602063197596,0.3925802272328421" stroke-dashoffset="13.440182" stroke-miterlimit="10"/><path d="M.57 9.81L12 9.87" fill="none" stroke="#ffffff" stroke-width="2" stroke-dasharray="10.693312704710983,0.7368447745191239" stroke-dashoffset="11.430157" stroke-miterlimit="10"/><path d="M.55 13.15l8.43.05" fill="none" stroke="#ffffff" stroke-width="2" stroke-dasharray="7.334637757445894,1.0955105212025884" stroke-dashoffset="8.430148" stroke-miterlimit="10"/></g><g transform="translate(696)"><defs><clipPath id="clip_frame29_path_1"><path d="M3.59 16.75h16.83c1.07 0 1.93-.86 1.93-1.93V4.34c0-1.07-.86-1.93-1.93-1.93H3.59c-1.07 0-1.93.86-1.93 1.93v15.1l1.93-2.69z"/></clipPath></defs><path clip-path="url(#clip_frame29_path_1)" d="M1.66-5.052s3.68-12.693 9.71.099c0 0 5.75 18.349 10.77-.839l.21 28.003-20.69.849V-5.052z" fill="#000000"/><path d="M3.59 16.75h16.83c1.07 0 1.93-.86 1.93-1.93V4.34c0-1.07-.86-1.93-1.93-1.93H3.59c-1.07 0-1.93.86-1.93 1.93v15.1l1.93-2.69z" fill="none" stroke="#000000" stroke-width="2" stroke-miterlimit="10"/><path d="M.63 6.46l13.44.07" fill="none" stroke="#ffffff" stroke-width="2" stroke-dasharray="13.437449941596906,0.002732348833531847" stroke-dashoffset="13.440182" stroke-miterlimit="10"/><path d="M.57 9.81L12 9.87" fill="none" stroke="#ffffff" stroke-width="2" stroke-dasharray="11.425463967966147,0.0046935112639600865" stroke-dashoffset="11.430157" stroke-miterlimit="10"/><path d="M.55 13.15l8.43.05" fill="none" stroke="#ffffff" stroke-width="2" stroke-dasharray="8.42394904477078,0.006199233877703881" stroke-dashoffset="8.430148" stroke-miterlimit="10"/></g><g transform="translate(720)"><defs><clipPath id="clip_frame30_path_1"><path d="M3.59 16.75h16.83c1.07 0 1.93-.86 1.93-1.93V4.34c0-1.07-.86-1.93-1.93-1.93H3.59c-1.07 0-1.93.86-1.93 1.93v15.1l1.93-2.69z"/></clipPath></defs><path clip-path="url(#clip_frame30_path_1)" d="M1.66-5.07s3.68-12.7 9.71.1c0 0 5.75 18.36 10.77-.84l.21 28.02-20.69.85V-5.07z" fill="#000000"/><path d="M3.59 16.75h16.83c1.07 0 1.93-.86 1.93-1.93V4.34c0-1.07-.86-1.93-1.93-1.93H3.59c-1.07 0-1.93.86-1.93 1.93v15.1l1.93-2.69z" fill="none" stroke="#000000" stroke-width="2" stroke-miterlimit="10"/><path d="M.63 6.46l13.44.07M.57 9.81L12 9.87M.55 13.15l8.43.05" fill="none" stroke="#ffffff" stroke-width="2" stroke-miterlimit="10"/></g><g transform="translate(744)"><defs><clipPath id="clip_frame31_path_1"><path d="M3.59 16.75h16.83c1.07 0 1.93-.86 1.93-1.93V4.34c0-1.07-.86-1.93-1.93-1.93H3.59c-1.07 0-1.93.86-1.93 1.93v15.1l1.93-2.69z"/></clipPath></defs><path clip-path="url(#clip_frame31_path_1)" d="M1.66-5.07s3.68-12.7 9.71.1c0 0 5.75 18.36 10.77-.84l.21 28.02-20.69.85V-5.07z" fill="#000000"/><path d="M3.59 16.75h16.83c1.07 0 1.93-.86 1.93-1.93V4.34c0-1.07-.86-1.93-1.93-1.93H3.59c-1.07 0-1.93.86-1.93 1.93v15.1l1.93-2.69z" fill="none" stroke="#000000" stroke-width="2" stroke-miterlimit="10"/><path d="M.63 6.46l13.44.07M.57 9.81L12 9.87M.55 13.15l8.43.05" fill="none" stroke="#ffffff" stroke-width="2" stroke-miterlimit="10"/></g><g transform="translate(768)"><defs><clipPath id="clip_frame32_path_1"><path d="M3.59 16.75h16.83c1.07 0 1.93-.86 1.93-1.93V4.34c0-1.07-.86-1.93-1.93-1.93H3.59c-1.07 0-1.93.86-1.93 1.93v15.1l1.93-2.69z"/></clipPath></defs><path clip-path="url(#clip_frame32_path_1)" d="M1.66-5.07s3.68-12.7 9.71.1c0 0 5.75 18.36 10.77-.84l.21 28.02-20.69.85V-5.07z" fill="#000000"/><path d="M3.59 16.75h16.83c1.07 0 1.93-.86 1.93-1.93V4.34c0-1.07-.86-1.93-1.93-1.93H3.59c-1.07 0-1.93.86-1.93 1.93v15.1l1.93-2.69z" fill="none" stroke="#000000" stroke-width="2" stroke-miterlimit="10"/><path d="M.63 6.46l13.44.07M.57 9.81L12 9.87M.55 13.15l8.43.05" fill="none" stroke="#ffffff" stroke-width="2" stroke-miterlimit="10"/></g><g transform="translate(792)"><defs><clipPath id="clip_frame33_path_1"><path d="M3.59 16.75h16.83c1.07 0 1.93-.86 1.93-1.93V4.34c0-1.07-.86-1.93-1.93-1.93H3.59c-1.07 0-1.93.86-1.93 1.93v15.1l1.93-2.69z"/></clipPath></defs><path clip-path="url(#clip_frame33_path_1)" d="M1.66-5.07s3.68-12.7 9.71.1c0 0 5.75 18.36 10.77-.84l.21 28.02-20.69.85V-5.07z" fill="#000000"/><path d="M3.59 16.75h16.83c1.07 0 1.93-.86 1.93-1.93V4.34c0-1.07-.86-1.93-1.93-1.93H3.59c-1.07 0-1.93.86-1.93 1.93v15.1l1.93-2.69z" fill="none" stroke="#000000" stroke-width="2" stroke-miterlimit="10"/><path d="M.63 6.46l13.44.07M.57 9.81L12 9.87M.55 13.15l8.43.05" fill="none" stroke="#ffffff" stroke-width="2" stroke-miterlimit="10"/></g><g transform="translate(816)"><defs><clipPath id="clip_frame34_path_1"><path d="M3.59 16.75h16.83c1.07 0 1.93-.86 1.93-1.93V4.34c0-1.07-.86-1.93-1.93-1.93H3.59c-1.07 0-1.93.86-1.93 1.93v15.1l1.93-2.69z"/></clipPath></defs><path clip-path="url(#clip_frame34_path_1)" d="M1.66-5.07s3.68-12.7 9.71.1c0 0 5.75 18.36 10.77-.84l.21 28.02-20.69.85V-5.07z" fill="#000000"/><path d="M3.59 16.75h16.83c1.07 0 1.93-.86 1.93-1.93V4.34c0-1.07-.86-1.93-1.93-1.93H3.59c-1.07 0-1.93.86-1.93 1.93v15.1l1.93-2.69z" fill="none" stroke="#000000" stroke-width="2" stroke-miterlimit="10"/><path d="M.63 6.46l13.44.07M.57 9.81L12 9.87M.55 13.15l8.43.05" fill="none" stroke="#ffffff" stroke-width="2" stroke-miterlimit="10"/></g><g transform="translate(840)"><defs><clipPath id="clip_frame35_path_1"><path d="M3.59 16.75h16.83c1.07 0 1.93-.86 1.93-1.93V4.34c0-1.07-.86-1.93-1.93-1.93H3.59c-1.07 0-1.93.86-1.93 1.93v15.1l1.93-2.69z"/></clipPath></defs><path clip-path="url(#clip_frame35_path_1)" d="M1.66-5.07s3.68-12.7 9.71.1c0 0 5.75 18.36 10.77-.84l.21 28.02-20.69.85V-5.07z" fill="#000000"/><path d="M3.59 16.75h16.83c1.07 0 1.93-.86 1.93-1.93V4.34c0-1.07-.86-1.93-1.93-1.93H3.59c-1.07 0-1.93.86-1.93 1.93v15.1l1.93-2.69z" fill="none" stroke="#000000" stroke-width="2" stroke-miterlimit="10"/><path d="M.63 6.46l13.44.07M.57 9.81L12 9.87M.55 13.15l8.43.05" fill="none" stroke="#ffffff" stroke-width="2" stroke-miterlimit="10"/></g><g transform="translate(864)"><defs><clipPath id="clip_frame36_path_1"><path d="M3.59 16.75h16.83c1.07 0 1.93-.86 1.93-1.93V4.34c0-1.07-.86-1.93-1.93-1.93H3.59c-1.07 0-1.93.86-1.93 1.93v15.1l1.93-2.69z"/></clipPath></defs><path clip-path="url(#clip_frame36_path_1)" d="M1.66-5.07s3.68-12.7 9.71.1c0 0 5.75 18.36 10.77-.84l.21 28.02-20.69.85V-5.07z" fill="#000000"/><path d="M3.59 16.75h16.83c1.07 0 1.93-.86 1.93-1.93V4.34c0-1.07-.86-1.93-1.93-1.93H3.59c-1.07 0-1.93.86-1.93 1.93v15.1l1.93-2.69z" fill="none" stroke="#000000" stroke-width="2" stroke-miterlimit="10"/><path d="M.63 6.46l13.44.07M.57 9.81L12 9.87M.55 13.15l8.43.05" fill="none" stroke="#ffffff" stroke-width="2" stroke-miterlimit="10"/></g><g transform="translate(888)"><defs><clipPath id="clip_frame37_path_1"><path d="M3.59 16.75h16.83c1.07 0 1.93-.86 1.93-1.93V4.34c0-1.07-.86-1.93-1.93-1.93H3.59c-1.07 0-1.93.86-1.93 1.93v15.1l1.93-2.69z"/></clipPath></defs><path clip-path="url(#clip_frame37_path_1)" d="M1.66-5.07s3.68-12.7 9.71.1c0 0 5.75 18.36 10.77-.84l.21 28.02-20.69.85V-5.07z" fill="#000000"/><path d="M3.59 16.75h16.83c1.07 0 1.93-.86 1.93-1.93V4.34c0-1.07-.86-1.93-1.93-1.93H3.59c-1.07 0-1.93.86-1.93 1.93v15.1l1.93-2.69z" fill="none" stroke="#000000" stroke-width="2" stroke-miterlimit="10"/><path d="M.63 6.46l13.44.07M.57 9.81L12 9.87M.55 13.15l8.43.05" fill="none" stroke="#ffffff" stroke-width="2" stroke-miterlimit="10"/></g><g transform="translate(912)"><defs><clipPath id="clip_frame38_path_1"><path d="M3.59 16.75h16.83c1.07 0 1.93-.86 1.93-1.93V4.34c0-1.07-.86-1.93-1.93-1.93H3.59c-1.07 0-1.93.86-1.93 1.93v15.1l1.93-2.69z"/></clipPath></defs><path clip-path="url(#clip_frame38_path_1)" d="M1.66-5.07s3.68-12.7 9.71.1c0 0 5.75 18.36 10.77-.84l.21 28.02-20.69.85V-5.07z" fill="#000000"/><path d="M3.59 16.75h16.83c1.07 0 1.93-.86 1.93-1.93V4.34c0-1.07-.86-1.93-1.93-1.93H3.59c-1.07 0-1.93.86-1.93 1.93v15.1l1.93-2.69z" fill="none" stroke="#000000" stroke-width="2" stroke-miterlimit="10"/><path d="M.63 6.46l13.44.07M.57 9.81L12 9.87M.55 13.15l8.43.05" fill="none" stroke="#ffffff" stroke-width="2" stroke-miterlimit="10"/></g><g transform="translate(936)"><defs><clipPath id="clip_frame39_path_1"><path d="M3.59 16.75h16.83c1.07 0 1.93-.86 1.93-1.93V4.34c0-1.07-.86-1.93-1.93-1.93H3.59c-1.07 0-1.93.86-1.93 1.93v15.1l1.93-2.69z"/></clipPath></defs><path clip-path="url(#clip_frame39_path_1)" d="M1.66-5.07s3.68-12.7 9.71.1c0 0 5.75 18.36 10.77-.84l.21 28.02-20.69.85V-5.07z" fill="#000000"/><path d="M3.59 16.75h16.83c1.07 0 1.93-.86 1.93-1.93V4.34c0-1.07-.86-1.93-1.93-1.93H3.59c-1.07 0-1.93.86-1.93 1.93v15.1l1.93-2.69z" fill="none" stroke="#000000" stroke-width="2" stroke-miterlimit="10"/><path d="M.63 6.46l13.44.07M.57 9.81L12 9.87M.55 13.15l8.43.05" fill="none" stroke="#ffffff" stroke-width="2" stroke-miterlimit="10"/></g><g transform="translate(960)"><defs><clipPath id="clip_frame40_path_1"><path d="M3.59 16.75h16.83c1.07 0 1.93-.86 1.93-1.93V4.34c0-1.07-.86-1.93-1.93-1.93H3.59c-1.07 0-1.93.86-1.93 1.93v15.1l1.93-2.69z"/></clipPath></defs><path clip-path="url(#clip_frame40_path_1)" d="M1.66-5.07s3.68-12.7 9.71.1c0 0 5.75 18.36 10.77-.84l.21 28.02-20.69.85V-5.07z" fill="#000000"/><path d="M3.59 16.75h16.83c1.07 0 1.93-.86 1.93-1.93V4.34c0-1.07-.86-1.93-1.93-1.93H3.59c-1.07 0-1.93.86-1.93 1.93v15.1l1.93-2.69z" fill="none" stroke="#000000" stroke-width="2" stroke-miterlimit="10"/><path d="M.63 6.46l13.44.07M.57 9.81L12 9.87M.55 13.15l8.43.05" fill="none" stroke="#ffffff" stroke-width="2" stroke-miterlimit="10"/></g><g transform="translate(984)"><defs><clipPath id="clip_frame41_path_1"><path d="M3.59 16.75h16.83c1.07 0 1.93-.86 1.93-1.93V4.34c0-1.07-.86-1.93-1.93-1.93H3.59c-1.07 0-1.93.86-1.93 1.93v15.1l1.93-2.69z"/></clipPath></defs><path clip-path="url(#clip_frame41_path_1)" d="M1.66-5.07s3.68-12.7 9.71.1c0 0 5.75 18.36 10.77-.84l.21 28.02-20.69.85V-5.07z" fill="#000000"/><path d="M3.59 16.75h16.83c1.07 0 1.93-.86 1.93-1.93V4.34c0-1.07-.86-1.93-1.93-1.93H3.59c-1.07 0-1.93.86-1.93 1.93v15.1l1.93-2.69z" fill="none" stroke="#000000" stroke-width="2" stroke-miterlimit="10"/><path d="M.63 6.46l13.44.07M.57 9.81L12 9.87M.55 13.15l8.43.05" fill="none" stroke="#ffffff" stroke-width="2" stroke-miterlimit="10"/></g><g transform="translate(1008)"><defs><clipPath id="clip_frame42_path_1"><path d="M3.59 16.75h16.83c1.07 0 1.93-.86 1.93-1.93V4.34c0-1.07-.86-1.93-1.93-1.93H3.59c-1.07 0-1.93.86-1.93 1.93v15.1l1.93-2.69z"/></clipPath></defs><path clip-path="url(#clip_frame42_path_1)" d="M1.66-5.07s3.68-12.7 9.71.1c0 0 5.75 18.36 10.77-.84l.21 28.02-20.69.85V-5.07z" fill="#000000"/><path d="M3.59 16.75h16.83c1.07 0 1.93-.86 1.93-1.93V4.34c0-1.07-.86-1.93-1.93-1.93H3.59c-1.07 0-1.93.86-1.93 1.93v15.1l1.93-2.69z" fill="none" stroke="#000000" stroke-width="2" stroke-miterlimit="10"/><path d="M.63 6.46l13.44.07M.57 9.81L12 9.87M.55 13.15l8.43.05" fill="none" stroke="#ffffff" stroke-width="2" stroke-miterlimit="10"/></g><g transform="translate(1032)"><defs><clipPath id="clip_frame43_path_1"><path d="M3.59 16.75h16.83c1.07 0 1.93-.86 1.93-1.93V4.34c0-1.07-.86-1.93-1.93-1.93H3.59c-1.07 0-1.93.86-1.93 1.93v15.1l1.93-2.69z"/></clipPath></defs><path clip-path="url(#clip_frame43_path_1)" d="M1.66-5.07s3.68-12.7 9.71.1c0 0 5.75 18.36 10.77-.84l.21 28.02-20.69.85V-5.07z" fill="#000000"/><path d="M3.59 16.75h16.83c1.07 0 1.93-.86 1.93-1.93V4.34c0-1.07-.86-1.93-1.93-1.93H3.59c-1.07 0-1.93.86-1.93 1.93v15.1l1.93-2.69z" fill="none" stroke="#000000" stroke-width="2" stroke-miterlimit="10"/><path d="M.63 6.46l13.44.07M.57 9.81L12 9.87M.55 13.15l8.43.05" fill="none" stroke="#ffffff" stroke-width="2" stroke-miterlimit="10"/></g><g transform="translate(1056)"><defs><clipPath id="clip_frame44_path_1"><path d="M3.59 16.75h16.83c1.07 0 1.93-.86 1.93-1.93V4.34c0-1.07-.86-1.93-1.93-1.93H3.59c-1.07 0-1.93.86-1.93 1.93v15.1l1.93-2.69z"/></clipPath></defs><path clip-path="url(#clip_frame44_path_1)" d="M1.66-5.07s3.68-12.7 9.71.1c0 0 5.75 18.36 10.77-.84l.21 28.02-20.69.85V-5.07z" fill="#000000"/><path d="M3.59 16.75h16.83c1.07 0 1.93-.86 1.93-1.93V4.34c0-1.07-.86-1.93-1.93-1.93H3.59c-1.07 0-1.93.86-1.93 1.93v15.1l1.93-2.69z" fill="none" stroke="#000000" stroke-width="2" stroke-miterlimit="10"/><path d="M.63 6.46l13.44.07M.57 9.81L12 9.87M.55 13.15l8.43.05" fill="none" stroke="#ffffff" stroke-width="2" stroke-miterlimit="10"/></g><g transform="translate(1080)"><defs><clipPath id="clip_frame45_path_1"><path d="M3.59 16.75h16.83c1.07 0 1.93-.86 1.93-1.93V4.34c0-1.07-.86-1.93-1.93-1.93H3.59c-1.07 0-1.93.86-1.93 1.93v15.1l1.93-2.69z"/></clipPath></defs><path clip-path="url(#clip_frame45_path_1)" d="M1.66-5.07s3.68-12.7 9.71.1c0 0 5.75 18.36 10.77-.84l.21 28.02-20.69.85V-5.07z" fill="#000000"/><path d="M3.59 16.75h16.83c1.07 0 1.93-.86 1.93-1.93V4.34c0-1.07-.86-1.93-1.93-1.93H3.59c-1.07 0-1.93.86-1.93 1.93v15.1l1.93-2.69z" fill="none" stroke="#000000" stroke-width="2" stroke-miterlimit="10"/><path d="M.63 6.46l13.44.07M.57 9.81L12 9.87M.55 13.15l8.43.05" fill="none" stroke="#ffffff" stroke-width="2" stroke-miterlimit="10"/></g><g transform="translate(1104)"><defs><clipPath id="clip_frame46_path_1"><path d="M3.59 16.75h16.83c1.07 0 1.93-.86 1.93-1.93V4.34c0-1.07-.86-1.93-1.93-1.93H3.59c-1.07 0-1.93.86-1.93 1.93v15.1l1.93-2.69z"/></clipPath></defs><path clip-path="url(#clip_frame46_path_1)" d="M1.66-5.07s3.68-12.7 9.71.1c0 0 5.75 18.36 10.77-.84l.21 28.02-20.69.85V-5.07z" fill="#000000"/><path d="M3.59 16.75h16.83c1.07 0 1.93-.86 1.93-1.93V4.34c0-1.07-.86-1.93-1.93-1.93H3.59c-1.07 0-1.93.86-1.93 1.93v15.1l1.93-2.69z" fill="none" stroke="#000000" stroke-width="2" stroke-miterlimit="10"/><path d="M.63 6.46l13.44.07M.57 9.81L12 9.87M.55 13.15l8.43.05" fill="none" stroke="#ffffff" stroke-width="2" stroke-miterlimit="10"/></g><g transform="translate(1128)"><defs><clipPath id="clip_frame47_path_1"><path d="M3.59 16.75h16.83c1.07 0 1.93-.86 1.93-1.93V4.34c0-1.07-.86-1.93-1.93-1.93H3.59c-1.07 0-1.93.86-1.93 1.93v15.1l1.93-2.69z"/></clipPath></defs><path clip-path="url(#clip_frame47_path_1)" d="M1.66-5.07s3.68-12.7 9.71.1c0 0 5.75 18.36 10.77-.84l.21 28.02-20.69.85V-5.07z" fill="#000000"/><path d="M3.59 16.75h16.83c1.07 0 1.93-.86 1.93-1.93V4.34c0-1.07-.86-1.93-1.93-1.93H3.59c-1.07 0-1.93.86-1.93 1.93v15.1l1.93-2.69z" fill="none" stroke="#000000" stroke-width="2" stroke-miterlimit="10"/><path d="M.63 6.46l13.44.07M.57 9.81L12 9.87M.55 13.15l8.43.05" fill="none" stroke="#ffffff" stroke-width="2" stroke-miterlimit="10"/></g><g transform="translate(1152)"><defs><clipPath id="clip_frame48_path_1"><path d="M3.59 16.75h16.83c1.07 0 1.93-.86 1.93-1.93V4.34c0-1.07-.86-1.93-1.93-1.93H3.59c-1.07 0-1.93.86-1.93 1.93v15.1l1.93-2.69z"/></clipPath></defs><path clip-path="url(#clip_frame48_path_1)" d="M1.66-5.07s3.68-12.7 9.71.1c0 0 5.75 18.36 10.77-.84l.21 28.02-20.69.85V-5.07z" fill="#000000"/><path d="M3.59 16.75h16.83c1.07 0 1.93-.86 1.93-1.93V4.34c0-1.07-.86-1.93-1.93-1.93H3.59c-1.07 0-1.93.86-1.93 1.93v15.1l1.93-2.69z" fill="none" stroke="#000000" stroke-width="2" stroke-miterlimit="10"/><path d="M.63 6.46l13.44.07M.57 9.81L12 9.87M.55 13.15l8.43.05" fill="none" stroke="#ffffff" stroke-width="2" stroke-miterlimit="10"/></g><g transform="translate(1176)"><defs><clipPath id="clip_frame49_path_1"><path d="M3.59 16.75h16.83c1.07 0 1.93-.86 1.93-1.93V4.34c0-1.07-.86-1.93-1.93-1.93H3.59c-1.07 0-1.93.86-1.93 1.93v15.1l1.93-2.69z"/></clipPath></defs><path clip-path="url(#clip_frame49_path_1)" d="M1.66-5.07s3.68-12.7 9.71.1c0 0 5.75 18.36 10.77-.84l.21 28.02-20.69.85V-5.07z" fill="#000000"/><path d="M3.59 16.75h16.83c1.07 0 1.93-.86 1.93-1.93V4.34c0-1.07-.86-1.93-1.93-1.93H3.59c-1.07 0-1.93.86-1.93 1.93v15.1l1.93-2.69z" fill="none" stroke="#000000" stroke-width="2" stroke-miterlimit="10"/><path d="M.63 6.46l13.44.07M.57 9.81L12 9.87M.55 13.15l8.43.05" fill="none" stroke="#ffffff" stroke-width="2" stroke-miterlimit="10"/></g><g transform="translate(1200)"><defs><clipPath id="clip_frame50_path_1"><path d="M3.59 16.75h16.83c1.07 0 1.93-.86 1.93-1.93V4.34c0-1.07-.86-1.93-1.93-1.93H3.59c-1.07 0-1.93.86-1.93 1.93v15.1l1.93-2.69z"/></clipPath></defs><path clip-path="url(#clip_frame50_path_1)" d="M1.66-5.07s3.68-12.7 9.71.1c0 0 5.75 18.36 10.77-.84l.21 28.02-20.69.85V-5.07z" fill="#000000"/><path d="M3.59 16.75h16.83c1.07 0 1.93-.86 1.93-1.93V4.34c0-1.07-.86-1.93-1.93-1.93H3.59c-1.07 0-1.93.86-1.93 1.93v15.1l1.93-2.69z" fill="none" stroke="#000000" stroke-width="2" stroke-miterlimit="10"/><path d="M.63 6.46l13.44.07M.57 9.81L12 9.87M.55 13.15l8.43.05" fill="none" stroke="#ffffff" stroke-width="2" stroke-miterlimit="10"/></g><g transform="translate(1224)"><defs><clipPath id="clip_frame51_path_1"><path d="M3.59 16.75h16.83c1.07 0 1.93-.86 1.93-1.93V4.34c0-1.07-.86-1.93-1.93-1.93H3.59c-1.07 0-1.93.86-1.93 1.93v15.1l1.93-2.69z"/></clipPath></defs><path clip-path="url(#clip_frame51_path_1)" d="M1.66-5.07s3.68-12.7 9.71.1c0 0 5.75 18.36 10.77-.84l.21 28.02-20.69.85V-5.07z" fill="#000000"/><path d="M3.59 16.75h16.83c1.07 0 1.93-.86 1.93-1.93V4.34c0-1.07-.86-1.93-1.93-1.93H3.59c-1.07 0-1.93.86-1.93 1.93v15.1l1.93-2.69z" fill="none" stroke="#000000" stroke-width="2" stroke-miterlimit="10"/><path d="M.63 6.46l13.44.07M.57 9.81L12 9.87M.55 13.15l8.43.05" fill="none" stroke="#ffffff" stroke-width="2" stroke-miterlimit="10"/></g><g transform="translate(1248)"><defs><clipPath id="clip_frame52_path_1"><path d="M3.59 16.75h16.83c1.07 0 1.93-.86 1.93-1.93V4.34c0-1.07-.86-1.93-1.93-1.93H3.59c-1.07 0-1.93.86-1.93 1.93v15.1l1.93-2.69z"/></clipPath></defs><path clip-path="url(#clip_frame52_path_1)" d="M1.66-5.07s3.68-12.7 9.71.1c0 0 5.75 18.36 10.77-.84l.21 28.02-20.69.85V-5.07z" fill="#000000"/><path d="M3.59 16.75h16.83c1.07 0 1.93-.86 1.93-1.93V4.34c0-1.07-.86-1.93-1.93-1.93H3.59c-1.07 0-1.93.86-1.93 1.93v15.1l1.93-2.69z" fill="none" stroke="#000000" stroke-width="2" stroke-miterlimit="10"/><path d="M.63 6.46l13.44.07M.57 9.81L12 9.87M.55 13.15l8.43.05" fill="none" stroke="#ffffff" stroke-width="2" stroke-miterlimit="10"/></g><g transform="translate(1272)"><defs><clipPath id="clip_frame53_path_1"><path d="M3.59 16.75h16.83c1.07 0 1.93-.86 1.93-1.93V4.34c0-1.07-.86-1.93-1.93-1.93H3.59c-1.07 0-1.93.86-1.93 1.93v15.1l1.93-2.69z"/></clipPath></defs><path clip-path="url(#clip_frame53_path_1)" d="M1.66-5.07s3.68-12.7 9.71.1c0 0 5.75 18.36 10.77-.84l.21 28.02-20.69.85V-5.07z" fill="#000000"/><path d="M3.59 16.75h16.83c1.07 0 1.93-.86 1.93-1.93V4.34c0-1.07-.86-1.93-1.93-1.93H3.59c-1.07 0-1.93.86-1.93 1.93v15.1l1.93-2.69z" fill="none" stroke="#000000" stroke-width="2" stroke-miterlimit="10"/><path d="M.63 6.46l13.44.07M.57 9.81L12 9.87M.55 13.15l8.43.05" fill="none" stroke="#ffffff" stroke-width="2" stroke-miterlimit="10"/></g><g transform="translate(1296)"><defs><clipPath id="clip_frame54_path_1"><path d="M3.59 16.75h16.83c1.07 0 1.93-.86 1.93-1.93V4.34c0-1.07-.86-1.93-1.93-1.93H3.59c-1.07 0-1.93.86-1.93 1.93v15.1l1.93-2.69z"/></clipPath></defs><path clip-path="url(#clip_frame54_path_1)" d="M1.66-5.07s3.68-12.7 9.71.1c0 0 5.75 18.36 10.77-.84l.21 28.02-20.69.85V-5.07z" fill="#000000"/><path d="M3.59 16.75h16.83c1.07 0 1.93-.86 1.93-1.93V4.34c0-1.07-.86-1.93-1.93-1.93H3.59c-1.07 0-1.93.86-1.93 1.93v15.1l1.93-2.69z" fill="none" stroke="#000000" stroke-width="2" stroke-miterlimit="10"/><path d="M.63 6.46l13.44.07M.57 9.81L12 9.87M.55 13.15l8.43.05" fill="none" stroke="#ffffff" stroke-width="2" stroke-miterlimit="10"/></g><g transform="translate(1320)"><defs><clipPath id="clip_frame55_path_1"><path d="M3.59 16.75h16.83c1.07 0 1.93-.86 1.93-1.93V4.34c0-1.07-.86-1.93-1.93-1.93H3.59c-1.07 0-1.93.86-1.93 1.93v15.1l1.93-2.69z"/></clipPath></defs><path clip-path="url(#clip_frame55_path_1)" d="M1.66-5.07s3.68-12.7 9.71.1c0 0 5.75 18.36 10.77-.84l.21 28.02-20.69.85V-5.07z" fill="#000000"/><path d="M3.59 16.75h16.83c1.07 0 1.93-.86 1.93-1.93V4.34c0-1.07-.86-1.93-1.93-1.93H3.59c-1.07 0-1.93.86-1.93 1.93v15.1l1.93-2.69z" fill="none" stroke="#000000" stroke-width="2" stroke-miterlimit="10"/><path d="M.63 6.46l13.44.07M.57 9.81L12 9.87M.55 13.15l8.43.05" fill="none" stroke="#ffffff" stroke-width="2" stroke-miterlimit="10"/></g><g transform="translate(1344)"><defs><clipPath id="clip_frame56_path_1"><path d="M3.59 16.75h16.83c1.07 0 1.93-.86 1.93-1.93V4.34c0-1.07-.86-1.93-1.93-1.93H3.59c-1.07 0-1.93.86-1.93 1.93v15.1l1.93-2.69z"/></clipPath></defs><path clip-path="url(#clip_frame56_path_1)" d="M1.66-5.07s3.68-12.7 9.71.1c0 0 5.75 18.36 10.77-.84l.21 28.02-20.69.85V-5.07z" fill="#000000"/><path d="M3.59 16.75h16.83c1.07 0 1.93-.86 1.93-1.93V4.34c0-1.07-.86-1.93-1.93-1.93H3.59c-1.07 0-1.93.86-1.93 1.93v15.1l1.93-2.69z" fill="none" stroke="#000000" stroke-width="2" stroke-miterlimit="10"/><path d="M.63 6.46l13.44.07M.57 9.81L12 9.87M.55 13.15l8.43.05" fill="none" stroke="#ffffff" stroke-width="2" stroke-miterlimit="10"/></g><g transform="translate(1368)"><defs><clipPath id="clip_frame57_path_1"><path d="M3.59 16.75h16.83c1.07 0 1.93-.86 1.93-1.93V4.34c0-1.07-.86-1.93-1.93-1.93H3.59c-1.07 0-1.93.86-1.93 1.93v15.1l1.93-2.69z"/></clipPath></defs><path clip-path="url(#clip_frame57_path_1)" d="M1.66-5.07s3.68-12.7 9.71.1c0 0 5.75 18.36 10.77-.84l.21 28.02-20.69.85V-5.07z" fill="#000000"/><path d="M3.59 16.75h16.83c1.07 0 1.93-.86 1.93-1.93V4.34c0-1.07-.86-1.93-1.93-1.93H3.59c-1.07 0-1.93.86-1.93 1.93v15.1l1.93-2.69z" fill="none" stroke="#000000" stroke-width="2" stroke-miterlimit="10"/><path d="M.63 6.46l13.44.07M.57 9.81L12 9.87M.55 13.15l8.43.05" fill="none" stroke="#ffffff" stroke-width="2" stroke-miterlimit="10"/></g><g transform="translate(1392)"><defs><clipPath id="clip_frame58_path_1"><path d="M3.59 16.75h16.83c1.07 0 1.93-.86 1.93-1.93V4.34c0-1.07-.86-1.93-1.93-1.93H3.59c-1.07 0-1.93.86-1.93 1.93v15.1l1.93-2.69z"/></clipPath></defs><path clip-path="url(#clip_frame58_path_1)" d="M1.66-5.07s3.68-12.7 9.71.1c0 0 5.75 18.36 10.77-.84l.21 28.02-20.69.85V-5.07z" fill="#000000"/><path d="M3.59 16.75h16.83c1.07 0 1.93-.86 1.93-1.93V4.34c0-1.07-.86-1.93-1.93-1.93H3.59c-1.07 0-1.93.86-1.93 1.93v15.1l1.93-2.69z" fill="none" stroke="#000000" stroke-width="2" stroke-miterlimit="10"/><path d="M.63 6.46l13.44.07M.57 9.81L12 9.87M.55 13.15l8.43.05" fill="none" stroke="#ffffff" stroke-width="2" stroke-miterlimit="10"/></g><g transform="translate(1416)"><defs><clipPath id="clip_frame59_path_1"><path d="M3.59 16.75h16.83c1.07 0 1.93-.86 1.93-1.93V4.34c0-1.07-.86-1.93-1.93-1.93H3.59c-1.07 0-1.93.86-1.93 1.93v15.1l1.93-2.69z"/></clipPath></defs><path clip-path="url(#clip_frame59_path_1)" d="M1.66-5.07s3.68-12.7 9.71.1c0 0 5.75 18.36 10.77-.84l.21 28.02-20.69.85V-5.07z" fill="#000000"/><path d="M3.59 16.75h16.83c1.07 0 1.93-.86 1.93-1.93V4.34c0-1.07-.86-1.93-1.93-1.93H3.59c-1.07 0-1.93.86-1.93 1.93v15.1l1.93-2.69z" fill="none" stroke="#000000" stroke-width="2" stroke-miterlimit="10"/><path d="M.63 6.46l13.44.07M.57 9.81L12 9.87M.55 13.15l8.43.05" fill="none" stroke="#ffffff" stroke-width="2" stroke-miterlimit="10"/></g><g transform="translate(1440)"><defs><clipPath id="clip_frame60_path_1"><path d="M3.59 16.75h16.83c1.07 0 1.93-.86 1.93-1.93V4.34c0-1.07-.86-1.93-1.93-1.93H3.59c-1.07 0-1.93.86-1.93 1.93v15.1l1.93-2.69z"/></clipPath></defs><path clip-path="url(#clip_frame60_path_1)" d="M1.66-5.07s3.68-12.7 9.71.1c0 0 5.75 18.36 10.77-.84l.21 28.02-20.69.85V-5.07z" fill="#000000"/><path d="M3.59 16.75h16.83c1.07 0 1.93-.86 1.93-1.93V4.34c0-1.07-.86-1.93-1.93-1.93H3.59c-1.07 0-1.93.86-1.93 1.93v15.1l1.93-2.69z" fill="none" stroke="#000000" stroke-width="2" stroke-miterlimit="10"/><path d="M.63 6.46l13.44.07M.57 9.81L12 9.87M.55 13.15l8.43.05" fill="none" stroke="#ffffff" stroke-width="2" stroke-miterlimit="10"/></g></svg>